<svg xmlns="http://www.w3.org/2000/svg" viewBox="0 0 128 128" width="128" height="128">
  <defs>
    <linearGradient id="g" x1="0%" y1="0%" x2="100%" y2="100%">
      <stop offset="0%" style="stop-color:#3b82f6"/>
      <stop offset="100%" style="stop-color:#8b5cf6"/>
    </linearGradient>
  </defs>
  <!-- Outer ring -->
  <circle cx="64" cy="64" r="60" fill="none" stroke="url(#g)" stroke-width="3" opacity="0.3"/>
  <circle cx="64" cy="64" r="54" fill="none" stroke="url(#g)" stroke-width="1.5" opacity="0.15"/>
  <!-- Brain shape (simplified) -->
  <path d="M40 44c0-10 8-18 18-18 6 0 11 3 14 7 3-4 8-7 14-7 10 0 18 8 18 18 0 8-4 14-9 18-5 4-7 8-7 14v4H56v-4c0-6-2-10-7-14-5-4-9-10-9-18z" fill="url(#g)" opacity="0.9"/>
  <!-- Sulcus lines -->
  <line x1="52" y1="54" x2="52" y2="62" stroke="#030712" stroke-width="2" opacity="0.6"/>
  <line x1="64" y1="50" x2="64" y2="64" stroke="#030712" stroke-width="2" opacity="0.6"/>
  <line x1="76" y1="54" x2="76" y2="62" stroke="#030712" stroke-width="2" opacity="0.6"/>
  <!-- Text -->
  <text x="64" y="112" text-anchor="middle" font-family="system-ui, sans-serif" font-weight="700" font-size="12" fill="#93c5fd" letter-spacing="3">CORTEX</text>
</svg>
